<?xml version="1.0" encoding="UTF-8" standalone="no"?>
<!DOCTYPE svg PUBLIC "-//W3C//DTD SVG 1.1//EN" "http://www.w3.org/Graphics/SVG/1.1/DTD/svg11.dtd">
<svg width="100%" height="100%" viewBox="0 0 500 500" version="1.1" xmlns="http://www.w3.org/2000/svg" xmlns:xlink="http://www.w3.org/1999/xlink" xml:space="preserve" xmlns:serif="http://www.serif.com/" style="fill-rule:evenodd;clip-rule:evenodd;stroke-linecap:round;stroke-linejoin:round;">
    <g transform="matrix(2.876972,0,0,2.240786,0,0)">
        <path d="M173.794,33.47L173.794,189.666C173.794,208.138 162.113,223.136 147.725,223.136L26.069,223.136C11.681,223.136 0,208.138 0,189.666L0,33.47C0,14.998 11.681,0 26.069,0L147.725,0C162.113,0 173.794,14.998 173.794,33.47Z" style="fill:rgb(242,175,13);"/>
    </g>
    <g transform="matrix(0.393851,0,0,0.393851,-26.164774,151.537371)">
        <g transform="matrix(1,0,0,1,-24,-1503.937008)">
            <g transform="matrix(24.25894,0,0,24.25894,725.191854,1753.937008)">
                <g transform="matrix(1,0,0,1,-25,-25)">
                    <g transform="matrix(2.083333,0,0,2.083333,0,0)">
                        <path d="M9,17.25L9,18.257C9,19.053 8.684,19.816 8.121,20.379L7.5,21L16.5,21L15.879,20.379C15.316,19.816 15,19.053 15,18.257L15,17.25M21,5.25L21,15C21,16.234 19.984,17.25 18.75,17.25L5.25,17.25C4.016,17.25 3,16.234 3,15L3,5.25M21,5.25C21,4.016 19.984,3 18.75,3L5.25,3C4.016,3 3,4.016 3,5.25M21,5.25L21,12C21,13.234 19.984,14.25 18.75,14.25L5.25,14.25C4.016,14.25 3,13.234 3,12L3,5.25" style="fill:none;fill-rule:nonzero;stroke:black;stroke-width:1.5px;"/>
                    </g>
                </g>
            </g>
        </g>
        <g transform="matrix(-16.965816,-0,0,-16.965816,701.191854,186.182768)">
            <g transform="matrix(1,0,0,1,-25,-25)">
                <g transform="matrix(2.083333,0,0,2.083333,0,0)">
                    <path d="M12,7.5L13.5,7.5M12,10.5L13.5,10.5M6,13.5L13.5,13.5M6,16.5L13.5,16.5M16.5,7.5L19.875,7.5C20.496,7.5 21,8.004 21,8.625L21,18C21,19.234 19.984,20.25 18.75,20.25M16.5,7.5L16.5,18C16.5,19.234 17.516,20.25 18.75,20.25M16.5,7.5L16.5,4.875C16.5,4.254 15.996,3.75 15.375,3.75L4.125,3.75C3.504,3.75 3,4.254 3,4.875L3,18C3,19.234 4.016,20.25 5.25,20.25L18.75,20.25M6,7.5L9,7.5L9,10.5L6,10.5L6,7.5Z" style="fill:rgb(242,175,13);fill-rule:nonzero;stroke:black;stroke-width:1.5px;"/>
                </g>
            </g>
        </g>
    </g>
</svg>
